<svg xmlns="http://www.w3.org/2000/svg" xmlns:xlink="http://www.w3.org/1999/xlink" width="1080" zoomAndPan="magnify" viewBox="0 0 810 809.999993" height="1080" preserveAspectRatio="xMidYMid meet" version="1.0"><defs><clipPath id="ebb3eaddb9"><path d="M 458 109.058594 L 658.890625 109.058594 L 658.890625 341 L 458 341 Z M 458 109.058594 " clip-rule="nonzero"/></clipPath><clipPath id="840fccab75"><path d="M 458 109.058594 L 647 109.058594 L 647 325 L 458 325 Z M 458 109.058594 " clip-rule="nonzero"/></clipPath><clipPath id="bd39dc8d14"><path d="M 151.140625 197 L 578 197 L 578 658 L 151.140625 658 Z M 151.140625 197 " clip-rule="nonzero"/></clipPath><clipPath id="ed7db2c870"><path d="M 151.140625 197 L 558 197 L 558 626 L 151.140625 626 Z M 151.140625 197 " clip-rule="nonzero"/></clipPath></defs><rect x="-81" width="972" fill="#ffffff" y="-80.999999" height="971.999992" fill-opacity="1"/><rect x="-81" width="972" fill="#ffffff" y="-80.999999" height="971.999992" fill-opacity="1"/><g clip-path="url(#ebb3eaddb9)"><path fill="#000000" d="M 462.042969 225.078125 C 459.78125 223.09375 458.308594 220.0625 458.308594 216.636719 C 458.308594 211.289062 461.898438 206.914062 466.453125 205.945312 C 466.453125 205.945312 482.722656 202.5 498.621094 196.410156 C 508.019531 192.8125 517.457031 188.546875 522.199219 183.078125 C 527.015625 177.515625 530.765625 166.5 533.933594 155.476562 C 539.253906 137.003906 542.261719 118.097656 542.261719 118.097656 C 543.121094 112.699219 547.460938 109.058594 552.214844 109.058594 C 555.863281 109.058594 559.257812 111.195312 561.035156 114.621094 C 563.644531 119.125 573.042969 136.121094 573.894531 137.378906 C 574.390625 138.117188 574.742188 138.996094 574.898438 139.964844 C 574.898438 139.964844 577.953125 159.164062 583.355469 177.933594 C 584.183594 180.828125 585.070312 183.71875 586 186.519531 C 591.128906 190.390625 598.484375 193.605469 605.808594 196.410156 C 621.710938 202.5 637.976562 205.945312 637.976562 205.945312 C 640.378906 206.453125 642.511719 207.910156 643.992188 209.957031 C 644.054688 210.023438 644.113281 210.09375 644.171875 210.175781 C 645.613281 212.085938 656.917969 232.929688 657.671875 234.023438 C 658.375 235.046875 658.785156 236.335938 658.785156 237.722656 C 658.785156 240.589844 657.011719 243.050781 654.5625 243.570312 C 654.5625 243.570312 637.921875 247.09375 621.652344 253.324219 C 611.425781 257.242188 601.265625 262.085938 596.109375 268.039062 C 590.945312 273.992188 586.746094 285.710938 583.355469 297.511719 C 577.953125 316.277344 574.898438 335.480469 574.898438 335.480469 C 574.445312 338.304688 572.3125 340.351562 569.828125 340.351562 C 568.988281 340.351562 568.1875 340.117188 567.480469 339.699219 C 566.121094 338.898438 546.683594 323.070312 545.285156 321.253906 C 543.753906 319.699219 542.648438 317.617188 542.261719 315.171875 C 542.261719 315.171875 539.253906 296.269531 533.933594 277.792969 C 531.753906 270.203125 529.292969 262.609375 526.402344 256.804688 C 523.675781 255.570312 520.84375 254.414062 518.003906 253.324219 C 501.734375 247.09375 485.089844 243.570312 485.089844 243.570312 C 484.367188 243.414062 483.703125 243.09375 483.121094 242.640625 C 481.746094 241.558594 467.28125 229.550781 462.171875 225.21875 C 462.113281 225.171875 462.074219 225.121094 462.042969 225.078125 Z M 462.042969 225.078125 " fill-opacity="1" fill-rule="evenodd"/></g><path fill="#ffc20d" d="M 557.289062 118.878906 C 557.289062 118.878906 560.339844 138.078125 565.742188 156.847656 C 569.136719 168.644531 573.339844 180.363281 578.496094 186.320312 C 583.65625 192.269531 593.8125 197.117188 604.039062 201.03125 C 620.308594 207.261719 636.953125 210.785156 636.953125 210.785156 C 639.398438 211.304688 641.175781 213.765625 641.175781 216.636719 C 641.175781 219.503906 639.398438 221.964844 636.953125 222.484375 C 636.953125 222.484375 620.308594 226.007812 604.039062 232.238281 C 593.8125 236.15625 583.65625 241 578.496094 246.953125 C 573.339844 252.90625 569.136719 264.625 565.742188 276.425781 C 560.339844 295.191406 557.289062 314.394531 557.289062 314.394531 C 556.835938 317.21875 554.703125 319.265625 552.214844 319.265625 C 549.730469 319.265625 547.597656 317.21875 547.148438 314.394531 C 547.148438 314.394531 544.089844 295.191406 538.691406 276.425781 C 535.296875 264.625 531.097656 252.90625 525.9375 246.953125 C 520.777344 241 510.617188 236.15625 500.390625 232.238281 C 484.121094 226.007812 467.480469 222.484375 467.480469 222.484375 C 465.035156 221.964844 463.257812 219.503906 463.257812 216.636719 C 463.257812 213.765625 465.035156 211.304688 467.480469 210.785156 C 467.480469 210.785156 484.121094 207.261719 500.390625 201.03125 C 510.617188 197.117188 520.777344 192.269531 525.9375 186.320312 C 531.097656 180.363281 535.296875 168.644531 538.691406 156.847656 C 544.089844 138.078125 547.148438 118.878906 547.148438 118.878906 C 547.597656 116.054688 549.730469 114.003906 552.214844 114.003906 C 554.703125 114.003906 556.835938 116.054688 557.289062 118.878906 Z M 557.289062 118.878906 " fill-opacity="1" fill-rule="evenodd"/><g clip-path="url(#840fccab75)"><path fill="#000000" d="M 562.171875 118.097656 C 562.171875 118.097656 565.183594 137.003906 570.496094 155.476562 C 573.667969 166.5 577.417969 177.515625 582.234375 183.078125 C 586.976562 188.546875 596.414062 192.8125 605.808594 196.410156 C 621.710938 202.5 637.976562 205.945312 637.976562 205.945312 C 642.535156 206.914062 646.125 211.289062 646.125 216.636719 C 646.125 221.984375 642.535156 226.359375 637.976562 227.324219 C 637.976562 227.324219 621.710938 230.769531 605.808594 236.859375 C 596.414062 240.457031 586.976562 244.726562 582.234375 250.195312 C 577.417969 255.753906 573.667969 266.773438 570.496094 277.792969 C 565.183594 296.269531 562.171875 315.171875 562.171875 315.171875 C 561.3125 320.570312 556.976562 324.214844 552.214844 324.214844 C 547.460938 324.214844 543.121094 320.570312 542.261719 315.171875 C 542.261719 315.171875 539.253906 296.269531 533.933594 277.792969 C 530.765625 266.773438 527.015625 255.753906 522.199219 250.195312 C 517.457031 244.726562 508.019531 240.457031 498.621094 236.859375 C 482.722656 230.769531 466.453125 227.324219 466.453125 227.324219 C 461.894531 226.359375 458.308594 221.984375 458.308594 216.636719 C 458.308594 211.289062 461.894531 206.914062 466.453125 205.945312 C 466.453125 205.945312 482.722656 202.5 498.621094 196.410156 C 508.019531 192.8125 517.457031 188.546875 522.199219 183.078125 C 527.015625 177.515625 530.765625 166.5 533.933594 155.476562 C 539.253906 137.003906 542.261719 118.097656 542.261719 118.097656 C 543.121094 112.699219 547.460938 109.058594 552.214844 109.058594 C 556.976562 109.058594 561.3125 112.699219 562.171875 118.097656 Z M 552.214844 314.078125 C 552.292969 313.9375 552.375 313.761719 552.398438 313.617188 C 552.398438 313.617188 555.503906 294.117188 560.988281 275.058594 C 564.605469 262.476562 569.257812 250.058594 574.757812 243.710938 C 580.335938 237.277344 591.210938 231.851562 602.269531 227.617188 C 618.910156 221.25 635.929688 217.644531 635.929688 217.644531 C 636.285156 217.566406 636.226562 217.054688 636.226562 216.636719 C 636.226562 216.214844 636.285156 215.703125 635.929688 215.628906 C 635.929688 215.628906 618.910156 212.023438 602.269531 205.652344 C 591.210938 201.417969 580.335938 195.996094 574.757812 189.558594 C 569.257812 183.210938 564.605469 170.792969 560.988281 158.214844 C 555.503906 139.152344 552.398438 119.65625 552.398438 119.65625 C 552.375 119.511719 552.292969 119.335938 552.214844 119.191406 C 552.136719 119.335938 552.058594 119.511719 552.035156 119.65625 C 552.035156 119.65625 548.929688 139.152344 543.449219 158.214844 C 539.828125 170.792969 535.175781 183.210938 529.675781 189.558594 C 524.097656 195.996094 513.21875 201.417969 502.160156 205.652344 C 485.523438 212.023438 468.507812 215.628906 468.507812 215.628906 C 468.148438 215.703125 468.203125 216.214844 468.203125 216.636719 C 468.203125 217.054688 468.148438 217.566406 468.507812 217.644531 C 468.507812 217.644531 485.523438 221.25 502.160156 227.617188 C 513.21875 231.851562 524.097656 237.277344 529.675781 243.710938 C 535.175781 250.058594 539.828125 262.476562 543.449219 275.058594 C 548.929688 294.117188 552.035156 313.617188 552.035156 313.617188 C 552.058594 313.761719 552.136719 313.9375 552.214844 314.078125 Z M 552.214844 314.078125 " fill-opacity="1" fill-rule="evenodd"/></g><g clip-path="url(#bd39dc8d14)"><path fill="#000000" d="M 154.734375 422.046875 C 152.527344 419.132812 151.21875 415.464844 151.21875 411.503906 C 151.21875 403.238281 156.917969 396.238281 164.625 394.746094 C 164.625 394.746094 201.324219 387.636719 237.195312 375.078125 C 259.136719 367.394531 281.03125 358.074219 292.101562 346.394531 C 303.203125 334.6875 312.0625 311.542969 319.363281 288.332031 C 331.285156 250.445312 338.035156 211.6875 338.035156 211.6875 C 339.457031 203.507812 346.308594 197.671875 354.191406 197.671875 C 359.957031 197.671875 365.171875 200.792969 368.113281 205.671875 C 368.121094 205.6875 368.128906 205.703125 368.140625 205.714844 C 368.203125 205.824219 368.265625 205.933594 368.328125 206.039062 C 375.5 218.351562 387.578125 242.910156 389.453125 246.921875 C 389.914062 247.90625 390.253906 248.96875 390.449219 250.09375 C 390.449219 250.09375 397.25 289.167969 409.273438 327.371094 C 411.183594 333.449219 413.210938 339.519531 415.363281 345.390625 C 415.664062 345.734375 415.972656 346.070312 416.28125 346.394531 C 427.351562 358.074219 449.246094 367.394531 471.1875 375.078125 C 507.0625 387.636719 543.757812 394.746094 543.757812 394.746094 C 548.546875 395.671875 552.5625 398.726562 554.914062 402.890625 C 554.917969 402.902344 554.925781 402.910156 554.933594 402.921875 C 557.515625 406.921875 574.503906 440.417969 576.054688 443.808594 C 576.785156 445.40625 577.1875 447.191406 577.1875 449.058594 C 577.1875 454.902344 573.234375 459.910156 567.789062 460.964844 C 567.789062 460.964844 530.742188 468.140625 494.527344 480.820312 C 471.761719 488.789062 449.148438 498.652344 437.664062 510.765625 C 426.175781 522.882812 416.828125 546.734375 409.273438 570.75 C 397.25 608.953125 390.449219 648.03125 390.449219 648.03125 C 389.445312 653.777344 384.703125 657.945312 379.164062 657.945312 C 376.734375 657.945312 374.453125 657.140625 372.578125 655.753906 C 370.179688 653.980469 343.457031 621.96875 341.609375 619.277344 C 341.582031 619.238281 341.554688 619.199219 341.53125 619.15625 C 339.789062 616.96875 338.550781 614.300781 338.035156 611.324219 C 338.035156 611.324219 331.285156 572.566406 319.363281 534.679688 C 315.515625 522.457031 311.238281 510.253906 306.433594 499.726562 C 294.566406 492.480469 279.214844 486.214844 263.800781 480.820312 C 227.585938 468.140625 190.539062 460.964844 190.539062 460.964844 C 188.128906 460.496094 186.011719 459.257812 184.402344 457.511719 C 182.367188 455.316406 159.9375 429.777344 154.734375 422.046875 Z M 154.734375 422.046875 " fill-opacity="1" fill-rule="evenodd"/></g><path fill="#ffc20d" d="M 365.476562 212.539062 C 365.476562 212.539062 372.28125 251.617188 384.296875 289.816406 C 391.855469 313.828125 401.207031 337.683594 412.691406 349.800781 C 424.175781 361.914062 446.789062 371.777344 469.554688 379.75 C 505.769531 392.425781 542.816406 399.605469 542.816406 399.605469 C 548.261719 400.660156 552.214844 405.664062 552.214844 411.503906 C 552.214844 417.347656 548.261719 422.355469 542.816406 423.410156 C 542.816406 423.410156 505.769531 430.585938 469.554688 443.265625 C 446.789062 451.234375 424.175781 461.097656 412.691406 473.210938 C 401.207031 485.328125 391.855469 509.183594 384.296875 533.195312 C 372.28125 571.394531 365.476562 610.476562 365.476562 610.476562 C 364.476562 616.222656 359.730469 620.390625 354.191406 620.390625 C 348.65625 620.390625 343.90625 616.222656 342.90625 610.476562 C 342.90625 610.476562 336.105469 571.394531 324.085938 533.195312 C 316.527344 509.183594 307.179688 485.328125 295.691406 473.210938 C 284.210938 461.097656 261.59375 451.234375 238.828125 443.265625 C 202.617188 430.585938 165.566406 423.410156 165.566406 423.410156 C 160.121094 422.355469 156.164062 417.347656 156.164062 411.503906 C 156.164062 405.664062 160.121094 400.660156 165.566406 399.605469 C 165.566406 399.605469 202.617188 392.425781 238.828125 379.75 C 261.59375 371.777344 284.210938 361.914062 295.691406 349.800781 C 307.179688 337.683594 316.527344 313.828125 324.085938 289.816406 C 336.105469 251.617188 342.90625 212.539062 342.90625 212.539062 C 343.90625 206.792969 348.65625 202.621094 354.191406 202.621094 C 359.730469 202.621094 364.476562 206.792969 365.476562 212.539062 Z M 365.476562 212.539062 " fill-opacity="1" fill-rule="evenodd"/><g clip-path="url(#ed7db2c870)"><path fill="#000000" d="M 370.351562 211.6875 C 370.351562 211.6875 377.097656 250.445312 389.019531 288.332031 C 396.324219 311.542969 405.179688 334.6875 416.28125 346.394531 C 427.351562 358.074219 449.246094 367.394531 471.1875 375.078125 C 507.0625 387.636719 543.757812 394.746094 543.757812 394.746094 C 551.464844 396.238281 557.167969 403.238281 557.167969 411.503906 C 557.167969 419.769531 551.464844 426.773438 543.757812 428.265625 C 543.757812 428.265625 507.0625 435.378906 471.1875 447.933594 C 449.246094 455.617188 427.351562 464.941406 416.28125 476.617188 C 405.179688 488.328125 396.324219 511.46875 389.019531 534.679688 C 377.097656 572.566406 370.351562 611.324219 370.351562 611.324219 C 368.925781 619.503906 362.078125 625.339844 354.191406 625.339844 C 346.308594 625.339844 339.457031 619.503906 338.035156 611.324219 C 338.035156 611.324219 331.285156 572.566406 319.363281 534.679688 C 312.0625 511.46875 303.203125 488.328125 292.101562 476.617188 C 281.03125 464.941406 259.136719 455.617188 237.195312 447.933594 C 201.324219 435.378906 164.625 428.265625 164.625 428.265625 C 156.917969 426.773438 151.21875 419.769531 151.21875 411.503906 C 151.21875 403.238281 156.917969 396.238281 164.625 394.746094 C 164.625 394.746094 201.324219 387.636719 237.195312 375.078125 C 259.136719 367.394531 281.03125 358.074219 292.101562 346.394531 C 303.203125 334.6875 312.0625 311.542969 319.363281 288.332031 C 331.285156 250.445312 338.035156 211.6875 338.035156 211.6875 C 339.457031 203.507812 346.308594 197.671875 354.191406 197.671875 C 362.078125 197.671875 368.925781 203.507812 370.351562 211.6875 Z M 360.601562 213.386719 C 360.023438 210.078125 357.382812 207.570312 354.191406 207.570312 C 351 207.570312 348.359375 210.078125 347.78125 213.386719 C 347.78125 213.386719 340.921875 252.785156 328.804688 291.300781 C 320.996094 316.121094 311.152344 340.683594 299.285156 353.203125 C 287.382812 365.757812 264.050781 376.160156 240.464844 384.417969 C 203.90625 397.21875 166.507812 404.460938 166.507812 404.460938 C 163.320312 405.078125 161.117188 408.089844 161.117188 411.503906 C 161.117188 414.921875 163.320312 417.933594 166.507812 418.550781 C 166.507812 418.550781 203.90625 425.796875 240.464844 438.59375 C 264.050781 446.851562 287.382812 457.257812 299.285156 469.808594 C 311.152344 482.328125 320.996094 506.894531 328.804688 531.710938 C 340.921875 570.226562 347.78125 609.628906 347.78125 609.628906 C 348.359375 612.9375 351 615.445312 354.191406 615.445312 C 357.382812 615.445312 360.023438 612.9375 360.601562 609.628906 C 360.601562 609.628906 367.460938 570.226562 379.578125 531.710938 C 387.386719 506.894531 397.230469 482.328125 409.097656 469.808594 C 421 457.257812 444.332031 446.851562 467.917969 438.59375 C 504.476562 425.796875 541.875 418.550781 541.875 418.550781 C 545.058594 417.933594 547.269531 414.921875 547.269531 411.503906 C 547.269531 408.089844 545.058594 405.078125 541.875 404.460938 C 541.875 404.460938 504.476562 397.21875 467.917969 384.417969 C 444.332031 376.160156 421 365.757812 409.097656 353.203125 C 397.230469 340.683594 387.386719 316.121094 379.578125 291.300781 C 367.460938 252.785156 360.601562 213.386719 360.601562 213.386719 Z M 360.601562 213.386719 " fill-opacity="1" fill-rule="evenodd"/></g></svg>